# xmcd
#
# Track frame offsets:
#	150
#	17449
#	35452
#	58425
#	88486
#	106827
#	139026
#	156928
#	193763
#	219425
#	245756
#	269990
#	295108
#
# Disc length: 4420 seconds
#
# Revision: 0
# Processed by: cddbd v1.5.2PL0 Copyright (c) Steve Scherf et al.
# Submitted via: EasyCDDAExtractor 11.0.2.1
#
DISCID=cb11420d
DTITLE=Allwood Smith - Wisdom versus michief
DYEAR=2007
DGENRE=Alternative
TTITLE0=Metro boogie
TTITLE1=Rollin with my baby
TTITLE2=Beatles medley
TTITLE3=Strong and kind
TTITLE4=Way you make me feel
TTITLE5=Hello
TTITLE6=Kansas city
TTITLE7=All blues
TTITLE8=Nothin but the blues
TTITLE9=Sunny's back
TTITLE10=Georgia
TTITLE11=Bye bye black bird
TTITLE12=Stormy Monday
EXTD=
EXTT0=
EXTT1=
EXTT2=
EXTT3=
EXTT4=
EXTT5=
EXTT6=
EXTT7=
EXTT8=
EXTT9=
EXTT10=
EXTT11=
EXTT12=
PLAYORDER=
